# xmcd
#
# Track frame offsets: 
#        150
#        19220
#        28791
#        46745
#        58437
#        82533
#        106869
#        127719
#        155125
#        170245
#        243807
#
# Disc length: 3487 seconds
#
# Revision: 0
# Processed by: cddbd v1.4PL0 Copyright (c) Steve Scherf et al.
# Submitted via: ExactAudioCopy v0.90b4
#
DISCID=830d9d0b
DTITLE=Paul Butterfield - Newport 65, Fillmore 66
DYEAR=1900
DGENRE=
TTITLE0=Blues With a Feeling
TTITLE1=Look Over Yonders Wall
TTITLE2=Born in Chicago
TTITLE3=Shake Your Moneymaker
TTITLE4=The Sky is Crying
TTITLE5=Oh, Pretty Woman
TTITLE6=Help Me
TTITLE7=Never Say No
TTITLE8=So Fine
TTITLE9=East-West
TTITLE10=Mellow Down Easy
EXTD=
EXTT0=
EXTT1=
EXTT2=
EXTT3=
EXTT4=
EXTT5=
EXTT6=
EXTT7=
EXTT8=
EXTT9=
EXTT10=
PLAYORDER=
